<svg width="80" height="80" viewBox="0 0 80 80" fill="none" xmlns="http://www.w3.org/2000/svg">
<path d="M26.668 53.334H53.3346V80.0004C38.6235 80.0004 26.668 68.045 26.668 53.334Z" fill="#12C4FC"/>
<path d="M0 53.334H26.6667V80.0005C11.9556 80.0005 0 68.045 0 53.334Z" fill="#12C4FC"/>
<path d="M26.6667 26.666V53.3325H0C0 38.577 11.9556 26.666 26.6667 26.666Z" fill="#12C4FC"/>
<path d="M53.332 80.0004V53.334H79.9987C79.9987 68.045 68.0431 80.0004 53.332 80.0004Z" fill="#12C4FC"/>
<path d="M26.6667 0V26.6664H0C0 11.911 11.9556 0 26.6667 0Z" fill="#12C4FC"/>
<path d="M53.332 53.3325V26.666H79.9987C79.9987 41.377 68.0431 53.3325 53.332 53.3325Z" fill="#12C4FC"/>
<path d="M53.3346 26.6664H26.668V0C41.3791 0 53.3346 11.911 53.3346 26.6664Z" fill="#12C4FC"/>
<path d="M79.9987 26.6664H53.332V0C68.0431 0 79.9987 11.911 79.9987 26.6664Z" fill="#12C4FC"/>
</svg>
