<svg width="80" height="80" viewBox="0 0 80 80" fill="none" xmlns="http://www.w3.org/2000/svg">
<path d="M79.9987 26.6664H53.332V0C68.0431 0 79.9987 11.911 79.9987 26.6664Z" fill="#00A9B3"/>
<path d="M53.332 53.3325V26.666H79.9987C79.9987 41.377 68.0431 53.3325 53.332 53.3325Z" fill="#00A9B3"/>
<path d="M0 26.666H26.6667V53.3325C11.9556 53.3325 0 41.377 0 26.666Z" fill="#00A9B3"/>
<path d="M53.3346 26.6664H26.668V0C41.3791 0 53.3346 11.911 53.3346 26.6664Z" fill="#00A9B3"/>
<path d="M26.668 80.0004V53.334H53.3346C53.3346 68.045 41.3791 80.0004 26.668 80.0004Z" fill="#00A9B3"/>
<path d="M0 53.334H26.6667V80.0005C11.9556 80.0005 0 68.045 0 53.334Z" fill="#00A9B3"/>
<path d="M26.668 53.3325V26.666H53.3346C53.3346 41.377 41.3791 53.3325 26.668 53.3325Z" fill="#00A9B3"/>
<path d="M26.6667 0V26.6664H0C0 11.911 11.9556 0 26.6667 0Z" fill="#00A9B3"/>
<path d="M53.332 80.0004V53.334H79.9987C79.9987 68.045 68.0431 80.0004 53.332 80.0004Z" fill="#00A9B3"/>
</svg>
