<svg width="80" height="80" viewBox="0 0 80 80" fill="none" xmlns="http://www.w3.org/2000/svg">
<path d="M53.3346 79.9987H26.668V53.332C41.3791 53.332 53.3346 65.2431 53.3346 79.9987Z" fill="#0684F9"/>
<path d="M0 79.9987H26.6667V53.332C11.9556 53.332 0 65.2431 0 79.9987Z" fill="#0684F9"/>
<path d="M0 53.3346V26.668H26.6667C26.6667 41.3791 14.7111 53.3346 0 53.3346Z" fill="#0684F9"/>
<path d="M0 0V26.6667H26.6667C26.6667 11.9111 14.7111 0 0 0Z" fill="#0684F9"/>
<path d="M26.668 0H53.3346V26.6667C38.6235 26.6667 26.668 14.7111 26.668 0Z" fill="#0684F9"/>
<path d="M79.9987 0H53.332V26.6667C68.0431 26.6667 79.9987 14.7111 79.9987 0Z" fill="#0684F9"/>
<path d="M79.9987 26.668V53.3346H53.332C53.332 38.5791 65.2876 26.668 79.9987 26.668Z" fill="#0684F9"/>
<path d="M79.9987 79.9987V53.332H53.332C53.332 68.0431 65.2876 79.9987 79.9987 79.9987Z" fill="#0684F9"/>
</svg>
