<svg width="195" height="24" viewBox="0 0 195 24" fill="none" xmlns="http://www.w3.org/2000/svg">
<path d="M40.88 5C42.6533 5 44.2067 5.31333 45.54 5.94C46.8867 6.55333 47.9267 7.42667 48.66 8.56C49.4067 9.68 49.78 10.9933 49.78 12.5C49.78 14.0067 49.4067 15.3267 48.66 16.46C47.9267 17.58 46.8867 18.4533 45.54 19.08C44.2067 19.6933 42.6533 20 40.88 20H33.4V5H40.88ZM37.52 18.26L35.54 16.32H41.2C42.0933 16.32 42.8667 16.1667 43.52 15.86C44.1867 15.54 44.7 15.0933 45.06 14.52C45.42 13.9467 45.6 13.2733 45.6 12.5C45.6 11.7133 45.42 11.04 45.06 10.48C44.7 9.90667 44.1867 9.46667 43.52 9.16C42.8667 8.84 42.0933 8.68 41.2 8.68H35.54L37.52 6.74V18.26ZM51.5575 8.4L53.6175 8.8L55.6575 8.4V20H51.5575V8.4ZM53.5975 7.46C52.8908 7.46 52.3175 7.28667 51.8775 6.94C51.4375 6.58 51.2175 6.09333 51.2175 5.48C51.2175 4.88 51.4375 4.4 51.8775 4.04C52.3175 3.68 52.8908 3.5 53.5975 3.5C54.3308 3.5 54.9108 3.68 55.3375 4.04C55.7775 4.4 55.9975 4.88 55.9975 5.48C55.9975 6.09333 55.7775 6.58 55.3375 6.94C54.9108 7.28667 54.3308 7.46 53.5975 7.46ZM57.5452 20V17.16L65.4252 10.96L68.3052 11.5H57.6052V8.58H69.8452V11.42L61.9852 17.6L59.5452 17.06H69.8852V20H57.5452ZM78.238 20.32C76.8513 20.32 75.6113 20.0667 74.518 19.56C73.438 19.0533 72.5846 18.3467 71.958 17.44C71.3313 16.52 71.018 15.4533 71.018 14.24C71.018 13.0533 71.318 12.0133 71.918 11.12C72.518 10.2133 73.338 9.50667 74.378 9C75.4313 8.49333 76.618 8.24 77.938 8.24C79.3113 8.24 80.478 8.54 81.438 9.14C82.4113 9.72667 83.158 10.56 83.678 11.64C84.2113 12.72 84.478 13.9933 84.478 15.46H74.318V13H82.178L80.838 13.86C80.7846 13.2733 80.638 12.78 80.398 12.38C80.158 11.9667 79.838 11.6533 79.438 11.44C79.0513 11.2267 78.5846 11.12 78.038 11.12C77.438 11.12 76.9246 11.24 76.498 11.48C76.0713 11.72 75.738 12.0533 75.498 12.48C75.258 12.8933 75.138 13.38 75.138 13.94C75.138 14.66 75.298 15.2733 75.618 15.78C75.9513 16.2733 76.4313 16.6533 77.058 16.92C77.698 17.1867 78.478 17.32 79.398 17.32C80.238 17.32 81.0713 17.2133 81.898 17C82.738 16.7733 83.498 16.46 84.178 16.06V18.66C83.3913 19.1933 82.4913 19.6067 81.478 19.9C80.478 20.18 79.398 20.32 78.238 20.32ZM85.6269 8.58H89.7269L90.4669 13.14V20H86.3869V12.52L85.6269 8.58ZM94.6669 8.24C95.7602 8.24 96.6935 8.46 97.4669 8.9C98.2402 9.34 98.8269 9.96 99.2269 10.76C99.6402 11.56 99.8469 12.5067 99.8469 13.6V20H95.7669V14.2C95.7669 13.3467 95.5469 12.6933 95.1069 12.24C94.6802 11.7867 94.0602 11.56 93.2469 11.56C92.6869 11.56 92.1935 11.68 91.7669 11.92C91.3535 12.16 91.0335 12.5 90.8069 12.94C90.5802 13.38 90.4669 13.9 90.4669 14.5L89.2069 13.84C89.3669 12.6267 89.7069 11.6067 90.2269 10.78C90.7469 9.94 91.3869 9.30667 92.1469 8.88C92.9069 8.45333 93.7469 8.24 94.6669 8.24ZM109.97 7.32C109.077 7.32 108.45 7.48 108.09 7.8C107.744 8.10667 107.57 8.60667 107.57 9.3V20H103.49V9.5C103.49 8.39333 103.717 7.45333 104.17 6.68C104.624 5.89333 105.29 5.3 106.17 4.9C107.064 4.48667 108.164 4.28 109.47 4.28C110.057 4.28 110.577 4.32 111.03 4.4C111.497 4.48 111.99 4.59333 112.51 4.74V7.74C112.11 7.59333 111.697 7.48667 111.27 7.42C110.857 7.35333 110.424 7.32 109.97 7.32ZM101.17 12.54V9.52H112.23V12.54H101.17ZM119.996 20.32C118.609 20.32 117.369 20.0667 116.276 19.56C115.196 19.0533 114.342 18.3467 113.716 17.44C113.089 16.52 112.776 15.4533 112.776 14.24C112.776 13.0533 113.076 12.0133 113.676 11.12C114.276 10.2133 115.096 9.50667 116.136 9C117.189 8.49333 118.376 8.24 119.696 8.24C121.069 8.24 122.236 8.54 123.196 9.14C124.169 9.72667 124.916 10.56 125.436 11.64C125.969 12.72 126.236 13.9933 126.236 15.46H116.076V13H123.936L122.596 13.86C122.542 13.2733 122.396 12.78 122.156 12.38C121.916 11.9667 121.596 11.6533 121.196 11.44C120.809 11.2267 120.342 11.12 119.796 11.12C119.196 11.12 118.682 11.24 118.256 11.48C117.829 11.72 117.496 12.0533 117.256 12.48C117.016 12.8933 116.896 13.38 116.896 13.94C116.896 14.66 117.056 15.2733 117.376 15.78C117.709 16.2733 118.189 16.6533 118.816 16.92C119.456 17.1867 120.236 17.32 121.156 17.32C121.996 17.32 122.829 17.2133 123.656 17C124.496 16.7733 125.256 16.46 125.936 16.06V18.66C125.149 19.1933 124.249 19.6067 123.236 19.9C122.236 20.18 121.156 20.32 119.996 20.32ZM132.083 16.74L130.963 16.36L137.283 8.58H141.583L131.643 20H127.983V4.6H132.083V16.74ZM134.023 14.42L137.103 12.26L141.883 20H137.283L134.023 14.42ZM155.637 16.28C155.637 17.16 155.371 17.9 154.837 18.5C154.304 19.1 153.544 19.5533 152.557 19.86C151.571 20.1667 150.384 20.32 148.997 20.32C147.571 20.32 146.317 20.1467 145.237 19.8C144.171 19.4533 143.337 18.9667 142.737 18.34C142.137 17.7133 141.817 16.9867 141.777 16.16H145.917C146.011 16.4667 146.191 16.7333 146.457 16.96C146.737 17.1733 147.104 17.34 147.557 17.46C148.011 17.5667 148.551 17.62 149.177 17.62C149.991 17.62 150.604 17.54 151.017 17.38C151.444 17.22 151.657 16.98 151.657 16.66C151.657 16.4067 151.497 16.22 151.177 16.1C150.857 15.9667 150.311 15.8667 149.537 15.8L147.517 15.64C146.171 15.5467 145.097 15.3467 144.297 15.04C143.511 14.72 142.944 14.3133 142.597 13.82C142.251 13.3133 142.077 12.74 142.077 12.1C142.077 11.2333 142.344 10.52 142.877 9.96C143.424 9.38667 144.177 8.96 145.137 8.68C146.111 8.38667 147.244 8.24 148.537 8.24C149.817 8.24 150.957 8.40667 151.957 8.74C152.957 9.07333 153.757 9.54 154.357 10.14C154.957 10.7267 155.304 11.42 155.397 12.22H151.257C151.191 11.9667 151.044 11.74 150.817 11.54C150.591 11.3267 150.277 11.1533 149.877 11.02C149.477 10.8867 148.964 10.82 148.337 10.82C147.604 10.82 147.044 10.9 146.657 11.06C146.284 11.22 146.097 11.4467 146.097 11.74C146.097 11.9667 146.211 12.1467 146.437 12.28C146.677 12.4133 147.117 12.5067 147.757 12.56L150.417 12.76C151.737 12.84 152.777 13.0333 153.537 13.34C154.297 13.6333 154.837 14.0267 155.157 14.52C155.477 15.0133 155.637 15.6 155.637 16.28ZM157.358 8.4L159.418 8.8L161.458 8.4V20H157.358V8.4ZM159.398 7.46C158.692 7.46 158.118 7.28667 157.678 6.94C157.238 6.58 157.018 6.09333 157.018 5.48C157.018 4.88 157.238 4.4 157.678 4.04C158.118 3.68 158.692 3.5 159.398 3.5C160.132 3.5 160.712 3.68 161.138 4.04C161.578 4.4 161.798 4.88 161.798 5.48C161.798 6.09333 161.578 6.58 161.138 6.94C160.712 7.28667 160.132 7.46 159.398 7.46ZM167.466 23.62C166.626 23.62 165.879 23.5133 165.226 23.3C164.573 23.1 163.939 22.7867 163.326 22.36V19.52C163.953 19.92 164.539 20.2067 165.086 20.38C165.633 20.5533 166.233 20.64 166.886 20.64C167.433 20.64 167.919 20.52 168.346 20.28C168.773 20.04 169.119 19.6 169.386 18.96L173.766 8.58H178.106L172.626 20.22C172.239 21.06 171.766 21.7267 171.206 22.22C170.659 22.7267 170.066 23.0867 169.426 23.3C168.786 23.5133 168.133 23.62 167.466 23.62ZM167.606 18.94L162.746 8.58H167.246L171.546 18.94H167.606ZM188.948 20L188.428 15.88L188.968 14.3L188.428 12.72L188.948 8.58H193.188L192.468 14.28L193.188 20H188.948ZM189.908 14.3C189.721 15.5 189.348 16.5533 188.788 17.46C188.241 18.3667 187.541 19.0733 186.688 19.58C185.848 20.0733 184.888 20.32 183.808 20.32C182.688 20.32 181.701 20.0733 180.848 19.58C180.008 19.0733 179.348 18.3667 178.868 17.46C178.388 16.54 178.148 15.4867 178.148 14.3C178.148 13.0867 178.388 12.0267 178.868 11.12C179.348 10.2133 180.008 9.50667 180.848 9C181.701 8.49333 182.688 8.24 183.808 8.24C184.888 8.24 185.848 8.49333 186.688 9C187.541 9.49333 188.248 10.1933 188.808 11.1C189.368 11.9933 189.734 13.06 189.908 14.3ZM182.288 14.3C182.288 14.86 182.401 15.36 182.628 15.8C182.868 16.24 183.194 16.5867 183.608 16.84C184.021 17.08 184.494 17.2 185.028 17.2C185.588 17.2 186.114 17.08 186.608 16.84C187.101 16.5867 187.534 16.24 187.908 15.8C188.281 15.36 188.561 14.86 188.748 14.3C188.561 13.7267 188.281 13.22 187.908 12.78C187.534 12.34 187.101 11.9933 186.608 11.74C186.114 11.4867 185.588 11.36 185.028 11.36C184.494 11.36 184.021 11.4867 183.608 11.74C183.194 11.9933 182.868 12.34 182.628 12.78C182.401 13.22 182.288 13.7267 182.288 14.3Z" fill="#020C31"/>
<path fill-rule="evenodd" clip-rule="evenodd" d="M12.0023 0C12.0023 0 12.0024 0 12.0025 0C18.6146 0.000106677 24.0002 5.3858 24.0002 11.9979H23.9956C23.9956 18.6367 18.61 23.9957 11.9979 23.9958V24H0V12.0021H11.9977V11.9979H0.00455927V0H12.0023Z" fill="#1C4CF7"/>
</svg>
