<svg width="1022" height="48" viewBox="0 0 1022 48" fill="none" xmlns="http://www.w3.org/2000/svg">
<rect width="330" height="48" rx="24" fill="#F2F2F2"/>
<path d="M96.4019 23.088H105.074V25.408H96.4019V23.088ZM105.346 18V20.336H96.4339L97.8099 18.944V30H95.0899V18H105.346ZM115.077 30L114.693 26.672L115.125 25.456L114.693 24.256L115.077 20.896H117.845L117.317 25.456L117.845 30H115.077ZM115.781 25.456C115.61 26.416 115.296 27.2587 114.837 27.984C114.389 28.6987 113.818 29.2533 113.125 29.648C112.442 30.0427 111.674 30.24 110.821 30.24C109.936 30.24 109.152 30.0427 108.469 29.648C107.786 29.2427 107.253 28.6827 106.869 27.968C106.496 27.2427 106.309 26.4053 106.309 25.456C106.309 24.496 106.496 23.6587 106.869 22.944C107.253 22.2187 107.786 21.6587 108.469 21.264C109.152 20.8587 109.936 20.656 110.821 20.656C111.674 20.656 112.442 20.8533 113.125 21.248C113.818 21.6427 114.394 22.2027 114.853 22.928C115.312 23.6427 115.621 24.4853 115.781 25.456ZM109.013 25.456C109.013 25.9893 109.12 26.4587 109.333 26.864C109.557 27.2693 109.861 27.5893 110.245 27.824C110.629 28.048 111.072 28.16 111.573 28.16C112.074 28.16 112.544 28.048 112.981 27.824C113.429 27.5893 113.824 27.2693 114.165 26.864C114.506 26.4587 114.773 25.9893 114.965 25.456C114.773 24.9227 114.506 24.4533 114.165 24.048C113.824 23.632 113.429 23.312 112.981 23.088C112.544 22.8533 112.074 22.736 111.573 22.736C111.072 22.736 110.629 22.8533 110.245 23.088C109.861 23.312 109.557 23.632 109.333 24.048C109.12 24.4533 109.013 24.9227 109.013 25.456ZM130.048 26.288C129.942 27.0667 129.638 27.7547 129.136 28.352C128.646 28.9493 128.011 29.4133 127.232 29.744C126.454 30.0747 125.584 30.24 124.624 30.24C123.536 30.24 122.576 30.0427 121.744 29.648C120.923 29.2427 120.278 28.6773 119.808 27.952C119.35 27.2267 119.12 26.3947 119.12 25.456C119.12 24.5067 119.35 23.6747 119.808 22.96C120.278 22.2347 120.923 21.6693 121.744 21.264C122.576 20.8587 123.536 20.656 124.624 20.656C125.584 20.656 126.454 20.8267 127.232 21.168C128.011 21.4987 128.646 21.9627 129.136 22.56C129.638 23.1467 129.942 23.8347 130.048 24.624H127.376C127.238 24.0053 126.918 23.5307 126.416 23.2C125.926 22.8587 125.328 22.688 124.624 22.688C124.059 22.688 123.563 22.8 123.136 23.024C122.72 23.2373 122.4 23.552 122.176 23.968C121.952 24.3733 121.84 24.8693 121.84 25.456C121.84 26.032 121.952 26.528 122.176 26.944C122.4 27.3493 122.72 27.664 123.136 27.888C123.563 28.1013 124.059 28.208 124.624 28.208C125.339 28.208 125.942 28.032 126.432 27.68C126.934 27.328 127.248 26.864 127.376 26.288H130.048ZM136.627 30.24C135.55 30.24 134.584 30.0427 133.731 29.648C132.888 29.2427 132.222 28.6773 131.731 27.952C131.251 27.2267 131.011 26.384 131.011 25.424C131.011 24.4747 131.24 23.6427 131.699 22.928C132.168 22.2133 132.808 21.6587 133.619 21.264C134.43 20.8587 135.352 20.656 136.387 20.656C137.443 20.656 138.35 20.8907 139.107 21.36C139.864 21.8187 140.446 22.4693 140.851 23.312C141.267 24.1547 141.475 25.1467 141.475 26.288H133.155V24.512H140.035L138.995 25.152C138.952 24.6187 138.819 24.1653 138.595 23.792C138.382 23.4187 138.088 23.1307 137.715 22.928C137.342 22.7253 136.904 22.624 136.403 22.624C135.859 22.624 135.384 22.736 134.979 22.96C134.584 23.1733 134.275 23.4773 134.051 23.872C133.838 24.256 133.731 24.7093 133.731 25.232C133.731 25.8613 133.87 26.4 134.147 26.848C134.424 27.296 134.83 27.6373 135.363 27.872C135.896 28.1067 136.542 28.224 137.299 28.224C137.982 28.224 138.67 28.128 139.363 27.936C140.056 27.7333 140.68 27.4507 141.235 27.088V28.88C140.638 29.3067 139.939 29.6427 139.139 29.888C138.35 30.1227 137.512 30.24 136.627 30.24ZM143.038 17.68H145.71V23.792L145.342 24.512V26.496L145.71 27.232V30H143.038V17.68ZM144.766 25.456C144.936 24.4853 145.251 23.6427 145.71 22.928C146.168 22.2027 146.739 21.6427 147.422 21.248C148.104 20.8533 148.872 20.656 149.726 20.656C150.611 20.656 151.395 20.8587 152.078 21.264C152.76 21.6587 153.294 22.2187 153.678 22.944C154.062 23.6587 154.254 24.496 154.254 25.456C154.254 26.4053 154.062 27.2427 153.678 27.968C153.294 28.6827 152.76 29.2427 152.078 29.648C151.395 30.0427 150.611 30.24 149.726 30.24C148.872 30.24 148.104 30.0427 147.422 29.648C146.739 29.2533 146.168 28.6987 145.71 27.984C145.262 27.2587 144.947 26.416 144.766 25.456ZM151.534 25.456C151.534 24.9227 151.422 24.4533 151.198 24.048C150.984 23.632 150.686 23.312 150.302 23.088C149.918 22.8533 149.48 22.736 148.99 22.736C148.488 22.736 148.014 22.8533 147.566 23.088C147.118 23.312 146.723 23.632 146.382 24.048C146.051 24.4533 145.79 24.9227 145.598 25.456C145.79 25.9893 146.051 26.4587 146.382 26.864C146.723 27.2693 147.118 27.5893 147.566 27.824C148.014 28.048 148.488 28.16 148.99 28.16C149.48 28.16 149.918 28.048 150.302 27.824C150.686 27.5893 150.984 27.2693 151.198 26.864C151.422 26.4587 151.534 25.9893 151.534 25.456ZM161.035 30.24C159.904 30.24 158.912 30.0427 158.059 29.648C157.206 29.2427 156.539 28.6827 156.059 27.968C155.579 27.2427 155.339 26.4053 155.339 25.456C155.339 24.496 155.579 23.6587 156.059 22.944C156.539 22.2187 157.206 21.6587 158.059 21.264C158.912 20.8587 159.904 20.656 161.035 20.656C162.166 20.656 163.158 20.8587 164.011 21.264C164.864 21.6587 165.526 22.2187 165.995 22.944C166.475 23.6587 166.715 24.496 166.715 25.456C166.715 26.4053 166.475 27.2427 165.995 27.968C165.526 28.6827 164.864 29.2427 164.011 29.648C163.158 30.0427 162.166 30.24 161.035 30.24ZM161.035 28.208C161.654 28.208 162.182 28.096 162.619 27.872C163.067 27.648 163.408 27.3333 163.643 26.928C163.888 26.512 164.011 26.0213 164.011 25.456C164.011 24.88 163.888 24.3893 163.643 23.984C163.408 23.568 163.067 23.248 162.619 23.024C162.182 22.8 161.654 22.688 161.035 22.688C160.427 22.688 159.899 22.8 159.451 23.024C159.003 23.248 158.656 23.568 158.411 23.984C158.176 24.3893 158.059 24.88 158.059 25.456C158.059 26.0213 158.176 26.512 158.411 26.928C158.656 27.3333 159.003 27.648 159.451 27.872C159.899 28.096 160.427 28.208 161.035 28.208ZM173.488 30.24C172.357 30.24 171.365 30.0427 170.512 29.648C169.659 29.2427 168.992 28.6827 168.512 27.968C168.032 27.2427 167.792 26.4053 167.792 25.456C167.792 24.496 168.032 23.6587 168.512 22.944C168.992 22.2187 169.659 21.6587 170.512 21.264C171.365 20.8587 172.357 20.656 173.488 20.656C174.619 20.656 175.611 20.8587 176.464 21.264C177.317 21.6587 177.979 22.2187 178.448 22.944C178.928 23.6587 179.168 24.496 179.168 25.456C179.168 26.4053 178.928 27.2427 178.448 27.968C177.979 28.6827 177.317 29.2427 176.464 29.648C175.611 30.0427 174.619 30.24 173.488 30.24ZM173.488 28.208C174.107 28.208 174.635 28.096 175.072 27.872C175.52 27.648 175.861 27.3333 176.096 26.928C176.341 26.512 176.464 26.0213 176.464 25.456C176.464 24.88 176.341 24.3893 176.096 23.984C175.861 23.568 175.52 23.248 175.072 23.024C174.635 22.8 174.107 22.688 173.488 22.688C172.88 22.688 172.352 22.8 171.904 23.024C171.456 23.248 171.109 23.568 170.864 23.984C170.629 24.3893 170.512 24.88 170.512 25.456C170.512 26.0213 170.629 26.512 170.864 26.928C171.109 27.3333 171.456 27.648 171.904 27.872C172.352 28.096 172.88 28.208 173.488 28.208ZM183.397 27.792L182.645 27.52L188.053 20.896H190.965L183.157 30H180.725V17.68H183.397V27.792ZM185.461 25.536L187.429 24.016L191.221 30H188.165L185.461 25.536Z" fill="#242825"/>
<path d="M214.929 31.0711L229.071 16.9289M229.071 16.9289H214.929M229.071 16.9289V31.0711" stroke="#242825" stroke-width="2"/>
<rect x="346" width="330" height="48" rx="24" fill="#F2F2F2"/>
<path d="M438.09 18H440.81V30H438.09V18ZM442.512 20.896H445.184L445.76 24.368V30H443.088V23.968L442.512 20.896ZM449.232 20.656C450.096 20.656 450.832 20.832 451.44 21.184C452.048 21.5253 452.512 22.016 452.832 22.656C453.152 23.296 453.312 24.0587 453.312 24.944V30H450.64V25.344C450.64 24.5227 450.443 23.904 450.048 23.488C449.653 23.0613 449.077 22.848 448.32 22.848C447.808 22.848 447.355 22.9653 446.96 23.2C446.576 23.424 446.277 23.7387 446.064 24.144C445.861 24.5493 445.76 25.0347 445.76 25.6L444.88 25.136C444.987 24.176 445.243 23.3653 445.648 22.704C446.053 22.0427 446.565 21.536 447.184 21.184C447.803 20.832 448.485 20.656 449.232 20.656ZM465.162 27.136C465.162 27.7867 464.97 28.3467 464.586 28.816C464.213 29.2853 463.653 29.6427 462.906 29.888C462.159 30.1227 461.247 30.24 460.17 30.24C459.061 30.24 458.095 30.1067 457.274 29.84C456.453 29.5627 455.813 29.1733 455.354 28.672C454.895 28.1707 454.65 27.5893 454.618 26.928H457.338C457.402 27.2267 457.562 27.488 457.818 27.712C458.074 27.9253 458.405 28.0907 458.81 28.208C459.226 28.3253 459.706 28.384 460.25 28.384C461.007 28.384 461.578 28.2987 461.962 28.128C462.357 27.9573 462.554 27.7013 462.554 27.36C462.554 27.1147 462.415 26.928 462.138 26.8C461.871 26.672 461.375 26.576 460.65 26.512L458.954 26.384C457.941 26.2987 457.135 26.128 456.538 25.872C455.941 25.616 455.514 25.296 455.258 24.912C455.013 24.5173 454.89 24.0853 454.89 23.616C454.89 22.9653 455.093 22.4213 455.498 21.984C455.903 21.5467 456.469 21.216 457.194 20.992C457.93 20.768 458.778 20.656 459.738 20.656C460.719 20.656 461.594 20.7893 462.362 21.056C463.13 21.3227 463.743 21.6907 464.202 22.16C464.671 22.6293 464.938 23.1733 465.002 23.792H462.282C462.239 23.568 462.117 23.36 461.914 23.168C461.722 22.9653 461.439 22.8 461.066 22.672C460.693 22.544 460.207 22.48 459.61 22.48C458.938 22.48 458.421 22.56 458.058 22.72C457.695 22.8693 457.514 23.0987 457.514 23.408C457.514 23.6213 457.626 23.7973 457.85 23.936C458.074 24.064 458.49 24.1547 459.098 24.208L461.306 24.384C462.287 24.4693 463.061 24.6347 463.626 24.88C464.191 25.1147 464.586 25.424 464.81 25.808C465.045 26.192 465.162 26.6347 465.162 27.136ZM465.657 22.912V21.728L467.561 21.104L468.697 18.496H470.233V20.896H474.265V22.912H470.233V26.224C470.233 26.928 470.377 27.424 470.665 27.712C470.963 27.9893 471.475 28.128 472.201 28.128C472.659 28.128 473.065 28.0853 473.417 28C473.769 27.9147 474.105 27.792 474.425 27.632V29.712C474.115 29.84 473.705 29.9573 473.193 30.064C472.681 30.1813 472.153 30.24 471.609 30.24C470.659 30.24 469.886 30.0907 469.289 29.792C468.702 29.4827 468.265 29.056 467.977 28.512C467.699 27.968 467.561 27.3333 467.561 26.608V22.912H465.657ZM483.936 30L483.552 26.672L483.984 25.456L483.552 24.256L483.936 20.896H486.704L486.176 25.456L486.704 30H483.936ZM484.64 25.456C484.47 26.416 484.155 27.2587 483.696 27.984C483.248 28.6987 482.678 29.2533 481.984 29.648C481.302 30.0427 480.534 30.24 479.68 30.24C478.795 30.24 478.011 30.0427 477.328 29.648C476.646 29.2427 476.112 28.6827 475.728 27.968C475.355 27.2427 475.168 26.4053 475.168 25.456C475.168 24.496 475.355 23.6587 475.728 22.944C476.112 22.2187 476.646 21.6587 477.328 21.264C478.011 20.8587 478.795 20.656 479.68 20.656C480.534 20.656 481.302 20.8533 481.984 21.248C482.678 21.6427 483.254 22.2027 483.712 22.928C484.171 23.6427 484.48 24.4853 484.64 25.456ZM477.872 25.456C477.872 25.9893 477.979 26.4587 478.192 26.864C478.416 27.2693 478.72 27.5893 479.104 27.824C479.488 28.048 479.931 28.16 480.432 28.16C480.934 28.16 481.403 28.048 481.84 27.824C482.288 27.5893 482.683 27.2693 483.024 26.864C483.366 26.4587 483.632 25.9893 483.824 25.456C483.632 24.9227 483.366 24.4533 483.024 24.048C482.683 23.632 482.288 23.312 481.84 23.088C481.403 22.8533 480.934 22.736 480.432 22.736C479.931 22.736 479.488 22.8533 479.104 23.088C478.72 23.312 478.416 23.632 478.192 24.048C477.979 24.4533 477.872 24.9227 477.872 25.456ZM496.556 27.744V26.16L496.652 25.824V23.84L496.556 23.504V20.896H499.228V27.568C499.228 28.72 498.972 29.6907 498.46 30.48C497.958 31.2693 497.26 31.8667 496.364 32.272C495.468 32.6773 494.428 32.88 493.244 32.88C492.412 32.88 491.644 32.7733 490.94 32.56C490.246 32.3467 489.564 32.0213 488.892 31.584V29.488C489.542 29.9893 490.22 30.3467 490.924 30.56C491.638 30.7733 492.358 30.88 493.084 30.88C494.204 30.88 495.062 30.6187 495.66 30.096C496.257 29.5733 496.556 28.7893 496.556 27.744ZM492.412 29.168C491.569 29.168 490.812 28.992 490.14 28.64C489.478 28.288 488.956 27.792 488.572 27.152C488.188 26.512 487.996 25.7653 487.996 24.912C487.996 24.0587 488.188 23.3173 488.572 22.688C488.956 22.048 489.478 21.552 490.14 21.2C490.812 20.8373 491.569 20.656 492.412 20.656C493.052 20.656 493.633 20.7573 494.156 20.96C494.689 21.152 495.164 21.408 495.58 21.728C496.006 22.048 496.364 22.4 496.652 22.784C496.94 23.1573 497.158 23.536 497.308 23.92C497.468 24.2933 497.548 24.6347 497.548 24.944C497.548 25.3387 497.425 25.7813 497.18 26.272C496.945 26.7627 496.604 27.2267 496.156 27.664C495.708 28.1013 495.169 28.464 494.54 28.752C493.91 29.0293 493.201 29.168 492.412 29.168ZM493.292 27.28C493.985 27.28 494.609 27.0933 495.164 26.72C495.729 26.336 496.225 25.7333 496.652 24.912C496.225 24.08 495.729 23.4773 495.164 23.104C494.598 22.72 493.974 22.528 493.292 22.528C492.748 22.528 492.278 22.6293 491.884 22.832C491.5 23.024 491.201 23.3013 490.988 23.664C490.785 24.016 490.684 24.432 490.684 24.912C490.684 25.3813 490.785 25.7973 490.988 26.16C491.19 26.512 491.489 26.7893 491.884 26.992C492.278 27.184 492.748 27.28 493.292 27.28ZM500.762 20.896H503.466L504.01 24.176V30H501.338V23.888L500.762 20.896ZM508.442 20.8V23.104C508.165 23.04 507.887 22.992 507.61 22.96C507.333 22.928 507.071 22.912 506.826 22.912C506.293 22.912 505.813 23.024 505.386 23.248C504.959 23.472 504.623 23.8187 504.378 24.288C504.133 24.7573 504.01 25.3493 504.01 26.064L503.45 25.392C503.514 24.7413 503.631 24.1333 503.802 23.568C503.973 22.992 504.207 22.4907 504.506 22.064C504.815 21.6267 505.194 21.2853 505.642 21.04C506.09 20.784 506.623 20.656 507.242 20.656C507.445 20.656 507.647 20.672 507.85 20.704C508.063 20.7253 508.261 20.7573 508.442 20.8ZM517.749 30L517.365 26.672L517.797 25.456L517.365 24.256L517.749 20.896H520.517L519.989 25.456L520.517 30H517.749ZM518.453 25.456C518.282 26.416 517.967 27.2587 517.509 27.984C517.061 28.6987 516.49 29.2533 515.797 29.648C515.114 30.0427 514.346 30.24 513.493 30.24C512.607 30.24 511.823 30.0427 511.141 29.648C510.458 29.2427 509.925 28.6827 509.541 27.968C509.167 27.2427 508.981 26.4053 508.981 25.456C508.981 24.496 509.167 23.6587 509.541 22.944C509.925 22.2187 510.458 21.6587 511.141 21.264C511.823 20.8587 512.607 20.656 513.493 20.656C514.346 20.656 515.114 20.8533 515.797 21.248C516.49 21.6427 517.066 22.2027 517.525 22.928C517.983 23.6427 518.293 24.4853 518.453 25.456ZM511.685 25.456C511.685 25.9893 511.791 26.4587 512.005 26.864C512.229 27.2693 512.533 27.5893 512.917 27.824C513.301 28.048 513.743 28.16 514.245 28.16C514.746 28.16 515.215 28.048 515.653 27.824C516.101 27.5893 516.495 27.2693 516.837 26.864C517.178 26.4587 517.445 25.9893 517.637 25.456C517.445 24.9227 517.178 24.4533 516.837 24.048C516.495 23.632 516.101 23.312 515.653 23.088C515.215 22.8533 514.746 22.736 514.245 22.736C513.743 22.736 513.301 22.8533 512.917 23.088C512.533 23.312 512.229 23.632 512.005 24.048C511.791 24.4533 511.685 24.9227 511.685 25.456ZM521.871 20.896H524.543L525.119 24.368V30H522.447V23.968L521.871 20.896ZM528.367 20.656C529.178 20.656 529.871 20.832 530.447 21.184C531.023 21.5253 531.461 22.016 531.759 22.656C532.069 23.296 532.223 24.0587 532.223 24.944V30H529.551V25.344C529.551 24.5227 529.37 23.904 529.007 23.488C528.655 23.0613 528.138 22.848 527.455 22.848C526.975 22.848 526.559 22.9653 526.207 23.2C525.855 23.424 525.583 23.7387 525.391 24.144C525.21 24.5493 525.119 25.0347 525.119 25.6L524.239 25.136C524.346 24.176 524.591 23.3653 524.975 22.704C525.359 22.0427 525.839 21.536 526.415 21.184C527.002 20.832 527.653 20.656 528.367 20.656ZM535.455 20.656C536.266 20.656 536.959 20.832 537.535 21.184C538.122 21.5253 538.565 22.016 538.863 22.656C539.173 23.296 539.327 24.0587 539.327 24.944V30H536.655V25.344C536.655 24.5227 536.474 23.904 536.111 23.488C535.759 23.0613 535.242 22.848 534.559 22.848C534.079 22.848 533.663 22.9653 533.311 23.2C532.959 23.424 532.687 23.7387 532.495 24.144C532.314 24.5493 532.223 25.0347 532.223 25.6L531.343 25.136C531.45 24.176 531.695 23.3653 532.079 22.704C532.463 22.0427 532.943 21.536 533.519 21.184C534.106 20.832 534.751 20.656 535.455 20.656Z" fill="#242825"/>
<path d="M563.929 31.0711L578.071 16.9289M578.071 16.9289H563.929M578.071 16.9289V31.0711" stroke="#242825" stroke-width="2"/>
<rect x="692" width="330" height="48" rx="24" fill="#F2F2F2"/>
<path d="M794.414 19.216H797.118V30H794.414V19.216ZM789.63 18H801.886V20.4H789.63V18ZM805.783 30.24C804.706 30.24 803.74 30.0427 802.887 29.648C802.044 29.2427 801.378 28.6773 800.887 27.952C800.407 27.2267 800.167 26.384 800.167 25.424C800.167 24.4747 800.396 23.6427 800.855 22.928C801.324 22.2133 801.964 21.6587 802.775 21.264C803.586 20.8587 804.508 20.656 805.543 20.656C806.599 20.656 807.506 20.8907 808.263 21.36C809.02 21.8187 809.602 22.4693 810.007 23.312C810.423 24.1547 810.631 25.1467 810.631 26.288H802.311V24.512H809.191L808.151 25.152C808.108 24.6187 807.975 24.1653 807.751 23.792C807.538 23.4187 807.244 23.1307 806.871 22.928C806.498 22.7253 806.06 22.624 805.559 22.624C805.015 22.624 804.54 22.736 804.135 22.96C803.74 23.1733 803.431 23.4773 803.207 23.872C802.994 24.256 802.887 24.7093 802.887 25.232C802.887 25.8613 803.026 26.4 803.303 26.848C803.58 27.296 803.986 27.6373 804.519 27.872C805.052 28.1067 805.698 28.224 806.455 28.224C807.138 28.224 807.826 28.128 808.519 27.936C809.212 27.7333 809.836 27.4507 810.391 27.088V28.88C809.794 29.3067 809.095 29.6427 808.295 29.888C807.506 30.1227 806.668 30.24 805.783 30.24ZM812.194 17.68H814.866V30H812.194V17.68ZM822.017 30.24C820.94 30.24 819.975 30.0427 819.121 29.648C818.279 29.2427 817.612 28.6773 817.121 27.952C816.641 27.2267 816.401 26.384 816.401 25.424C816.401 24.4747 816.631 23.6427 817.089 22.928C817.559 22.2133 818.199 21.6587 819.009 21.264C819.82 20.8587 820.743 20.656 821.777 20.656C822.833 20.656 823.74 20.8907 824.497 21.36C825.255 21.8187 825.836 22.4693 826.241 23.312C826.657 24.1547 826.865 25.1467 826.865 26.288H818.545V24.512H825.425L824.385 25.152C824.343 24.6187 824.209 24.1653 823.985 23.792C823.772 23.4187 823.479 23.1307 823.105 22.928C822.732 22.7253 822.295 22.624 821.793 22.624C821.249 22.624 820.775 22.736 820.369 22.96C819.975 23.1733 819.665 23.4773 819.441 23.872C819.228 24.256 819.121 24.7093 819.121 25.232C819.121 25.8613 819.26 26.4 819.537 26.848C819.815 27.296 820.22 27.6373 820.753 27.872C821.287 28.1067 821.932 28.224 822.689 28.224C823.372 28.224 824.06 28.128 824.753 27.936C825.447 27.7333 826.071 27.4507 826.625 27.088V28.88C826.028 29.3067 825.329 29.6427 824.529 29.888C823.74 30.1227 822.903 30.24 822.017 30.24ZM836.524 27.744V26.16L836.62 25.824V23.84L836.524 23.504V20.896H839.196V27.568C839.196 28.72 838.94 29.6907 838.428 30.48C837.927 31.2693 837.228 31.8667 836.332 32.272C835.436 32.6773 834.396 32.88 833.212 32.88C832.38 32.88 831.612 32.7733 830.908 32.56C830.215 32.3467 829.532 32.0213 828.86 31.584V29.488C829.511 29.9893 830.188 30.3467 830.892 30.56C831.607 30.7733 832.327 30.88 833.052 30.88C834.172 30.88 835.031 30.6187 835.628 30.096C836.226 29.5733 836.524 28.7893 836.524 27.744ZM832.38 29.168C831.538 29.168 830.78 28.992 830.108 28.64C829.447 28.288 828.924 27.792 828.54 27.152C828.156 26.512 827.964 25.7653 827.964 24.912C827.964 24.0587 828.156 23.3173 828.54 22.688C828.924 22.048 829.447 21.552 830.108 21.2C830.78 20.8373 831.538 20.656 832.38 20.656C833.02 20.656 833.602 20.7573 834.124 20.96C834.658 21.152 835.132 21.408 835.548 21.728C835.975 22.048 836.332 22.4 836.62 22.784C836.908 23.1573 837.127 23.536 837.276 23.92C837.436 24.2933 837.516 24.6347 837.516 24.944C837.516 25.3387 837.394 25.7813 837.148 26.272C836.914 26.7627 836.572 27.2267 836.124 27.664C835.676 28.1013 835.138 28.464 834.508 28.752C833.879 29.0293 833.17 29.168 832.38 29.168ZM833.26 27.28C833.954 27.28 834.578 27.0933 835.132 26.72C835.698 26.336 836.194 25.7333 836.62 24.912C836.194 24.08 835.698 23.4773 835.132 23.104C834.567 22.72 833.943 22.528 833.26 22.528C832.716 22.528 832.247 22.6293 831.852 22.832C831.468 23.024 831.17 23.3013 830.956 23.664C830.754 24.016 830.652 24.432 830.652 24.912C830.652 25.3813 830.754 25.7973 830.956 26.16C831.159 26.512 831.458 26.7893 831.852 26.992C832.247 27.184 832.716 27.28 833.26 27.28ZM840.731 20.896H843.435L843.979 24.176V30H841.307V23.888L840.731 20.896ZM848.411 20.8V23.104C848.133 23.04 847.856 22.992 847.579 22.96C847.301 22.928 847.04 22.912 846.795 22.912C846.261 22.912 845.781 23.024 845.355 23.248C844.928 23.472 844.592 23.8187 844.347 24.288C844.101 24.7573 843.979 25.3493 843.979 26.064L843.419 25.392C843.483 24.7413 843.6 24.1333 843.771 23.568C843.941 22.992 844.176 22.4907 844.475 22.064C844.784 21.6267 845.163 21.2853 845.611 21.04C846.059 20.784 846.592 20.656 847.211 20.656C847.413 20.656 847.616 20.672 847.819 20.704C848.032 20.7253 848.229 20.7573 848.411 20.8ZM857.717 30L857.333 26.672L857.765 25.456L857.333 24.256L857.717 20.896H860.485L859.957 25.456L860.485 30H857.717ZM858.421 25.456C858.251 26.416 857.936 27.2587 857.477 27.984C857.029 28.6987 856.459 29.2533 855.765 29.648C855.083 30.0427 854.315 30.24 853.461 30.24C852.576 30.24 851.792 30.0427 851.109 29.648C850.427 29.2427 849.893 28.6827 849.509 27.968C849.136 27.2427 848.949 26.4053 848.949 25.456C848.949 24.496 849.136 23.6587 849.509 22.944C849.893 22.2187 850.427 21.6587 851.109 21.264C851.792 20.8587 852.576 20.656 853.461 20.656C854.315 20.656 855.083 20.8533 855.765 21.248C856.459 21.6427 857.035 22.2027 857.493 22.928C857.952 23.6427 858.261 24.4853 858.421 25.456ZM851.653 25.456C851.653 25.9893 851.76 26.4587 851.973 26.864C852.197 27.2693 852.501 27.5893 852.885 27.824C853.269 28.048 853.712 28.16 854.213 28.16C854.715 28.16 855.184 28.048 855.621 27.824C856.069 27.5893 856.464 27.2693 856.805 26.864C857.147 26.4587 857.413 25.9893 857.605 25.456C857.413 24.9227 857.147 24.4533 856.805 24.048C856.464 23.632 856.069 23.312 855.621 23.088C855.184 22.8533 854.715 22.736 854.213 22.736C853.712 22.736 853.269 22.8533 852.885 23.088C852.501 23.312 852.197 23.632 851.973 24.048C851.76 24.4533 851.653 24.9227 851.653 25.456ZM861.84 20.896H864.512L865.088 24.368V30H862.416V23.968L861.84 20.896ZM868.336 20.656C869.147 20.656 869.84 20.832 870.416 21.184C870.992 21.5253 871.429 22.016 871.728 22.656C872.037 23.296 872.192 24.0587 872.192 24.944V30H869.52V25.344C869.52 24.5227 869.339 23.904 868.976 23.488C868.624 23.0613 868.107 22.848 867.424 22.848C866.944 22.848 866.528 22.9653 866.176 23.2C865.824 23.424 865.552 23.7387 865.36 24.144C865.179 24.5493 865.088 25.0347 865.088 25.6L864.208 25.136C864.315 24.176 864.56 23.3653 864.944 22.704C865.328 22.0427 865.808 21.536 866.384 21.184C866.971 20.832 867.621 20.656 868.336 20.656ZM875.424 20.656C876.235 20.656 876.928 20.832 877.504 21.184C878.091 21.5253 878.533 22.016 878.832 22.656C879.141 23.296 879.296 24.0587 879.296 24.944V30H876.624V25.344C876.624 24.5227 876.443 23.904 876.08 23.488C875.728 23.0613 875.211 22.848 874.528 22.848C874.048 22.848 873.632 22.9653 873.28 23.2C872.928 23.424 872.656 23.7387 872.464 24.144C872.283 24.5493 872.192 25.0347 872.192 25.6L871.312 25.136C871.419 24.176 871.664 23.3653 872.048 22.704C872.432 22.0427 872.912 21.536 873.488 21.184C874.075 20.832 874.72 20.656 875.424 20.656Z" fill="#242825"/>
<path d="M903.429 31.0711L917.571 16.9289M917.571 16.9289H903.429M917.571 16.9289V31.0711" stroke="#242825" stroke-width="2"/>
</svg>
